<svg width="50" height="50" viewBox="0 0 50 50" fill="none" xmlns="http://www.w3.org/2000/svg">
<rect width="50" height="50" rx="13.5" fill="#E69DFF"/>
<path d="M38 26.25C38.6904 26.25 39.25 25.6904 39.25 25C39.25 24.3096 38.6904 23.75 38 23.75V26.25ZM9.11612 24.1161C8.62797 24.6043 8.62797 25.3957 9.11612 25.8839L17.0711 33.8388C17.5592 34.327 18.3507 34.327 18.8388 33.8388C19.327 33.3507 19.327 32.5592 18.8388 32.0711L11.7678 25L18.8388 17.9289C19.327 17.4408 19.327 16.6493 18.8388 16.1612C18.3507 15.673 17.5592 15.673 17.0711 16.1612L9.11612 24.1161ZM38 23.75L10 23.75V26.25L38 26.25V23.75Z" fill="black"/>
</svg>
