<svg width="393" height="139" viewBox="0 0 393 139" fill="none" xmlns="http://www.w3.org/2000/svg">
<mask id="path-1-inside-1_4_650" fill="white">
<path d="M388.034 -37.1528C392.038 -26.3579 389.909 -15.3579 381.794 -4.9093C373.678 5.53929 359.769 15.1885 341.022 23.3746C322.275 31.5607 299.135 38.0894 273.195 42.5118C247.254 46.9341 219.129 49.1451 190.752 48.9926C162.376 48.8401 134.422 46.3279 108.814 41.6286C83.2056 36.9293 60.5503 30.1545 42.4064 21.7702C24.2624 13.3858 11.0604 3.59098 3.70845 -6.94072C-3.64356 -17.4724 -4.97109 -28.491 -0.182854 -39.2386L193.5 -26.5L388.034 -37.1528Z"/>
</mask>
<path d="M388.034 -37.1528C392.038 -26.3579 389.909 -15.3579 381.794 -4.9093C373.678 5.53929 359.769 15.1885 341.022 23.3746C322.275 31.5607 299.135 38.0894 273.195 42.5118C247.254 46.9341 219.129 49.1451 190.752 48.9926C162.376 48.8401 134.422 46.3279 108.814 41.6286C83.2056 36.9293 60.5503 30.1545 42.4064 21.7702C24.2624 13.3858 11.0604 3.59098 3.70845 -6.94072C-3.64356 -17.4724 -4.97109 -28.491 -0.182854 -39.2386L193.5 -26.5L388.034 -37.1528Z" stroke="#201408" stroke-width="20" mask="url(#path-1-inside-1_4_650)"/>
<path d="M126.695 135.419L118.114 89.2645H169.232L158.581 135.419H126.695Z" fill="#FDFF95" stroke="black" stroke-width="3.16129"/>
<line x1="118.351" y1="89.172" x2="158.183" y2="134.695" stroke="black" stroke-width="3.16129"/>
<line x1="126.722" y1="135.953" x2="167.823" y2="89.1697" stroke="black" stroke-width="3.16129"/>
<rect x="114" y="85.1548" width="60.0645" height="2.52903" rx="1.26452" fill="black"/>
<rect x="127.91" y="66.8193" width="31.6129" height="3.79355" rx="1.89677" fill="black"/>
<path d="M117.794 85.1549C117.794 77.1236 124.304 70.6129 132.335 70.6129H155.097C163.128 70.6129 169.639 77.1236 169.639 85.1549H117.794Z" fill="black"/>
<path d="M134.232 64.9226C134.232 59.6848 138.478 55.4387 143.716 55.4387C148.954 55.4387 153.2 59.6848 153.2 64.9226V66.8194H134.232V64.9226Z" fill="black"/>
<circle cx="143.716" cy="51.6452" r="11.0645" stroke="black" stroke-width="3.16129"/>
<path d="M26.6945 114.419L18.1144 68.2645H69.2324L58.5813 114.419H26.6945Z" fill="#FDFF95" stroke="black" stroke-width="3.16129"/>
<line x1="18.3508" y1="68.172" x2="58.1831" y2="113.695" stroke="black" stroke-width="3.16129"/>
<line x1="26.7222" y1="114.953" x2="67.8227" y2="68.1697" stroke="black" stroke-width="3.16129"/>
<rect x="14" y="64.1548" width="60.0645" height="2.52903" rx="1.26452" fill="black"/>
<rect x="27.9097" y="45.8193" width="31.6129" height="3.79355" rx="1.89677" fill="black"/>
<path d="M17.7935 64.1549C17.7935 56.1236 24.3042 49.6129 32.3355 49.6129H55.0968C63.1281 49.6129 69.6387 56.1236 69.6387 64.1549H17.7935Z" fill="black"/>
<path d="M34.2322 43.9226C34.2322 38.6848 38.4783 34.4387 43.7161 34.4387C48.9539 34.4387 53.2 38.6848 53.2 43.9226V45.8194H34.2322V43.9226Z" fill="black"/>
<circle cx="43.7161" cy="30.6452" r="11.0645" stroke="black" stroke-width="3.16129"/>
<path d="M246.695 137.419L238.114 91.2645H289.232L278.581 137.419H246.695Z" fill="#FDFF95" stroke="black" stroke-width="3.16129"/>
<line x1="238.351" y1="91.172" x2="278.183" y2="136.695" stroke="black" stroke-width="3.16129"/>
<line x1="246.722" y1="137.953" x2="287.823" y2="91.1697" stroke="black" stroke-width="3.16129"/>
<rect x="234" y="87.1548" width="60.0645" height="2.52903" rx="1.26452" fill="black"/>
<rect x="247.91" y="68.8193" width="31.6129" height="3.79355" rx="1.89677" fill="black"/>
<path d="M237.794 87.1549C237.794 79.1236 244.304 72.6129 252.335 72.6129H275.097C283.128 72.6129 289.639 79.1236 289.639 87.1549H237.794Z" fill="black"/>
<path d="M254.232 66.9226C254.232 61.6848 258.478 57.4387 263.716 57.4387C268.954 57.4387 273.2 61.6848 273.2 66.9226V68.8194H254.232V66.9226Z" fill="black"/>
<circle cx="263.716" cy="53.6452" r="11.0645" stroke="black" stroke-width="3.16129"/>
<path d="M345.695 107.419L337.114 61.2645H388.232L377.581 107.419H345.695Z" fill="#FDFF95" stroke="black" stroke-width="3.16129"/>
<line x1="337.351" y1="61.172" x2="377.183" y2="106.695" stroke="black" stroke-width="3.16129"/>
<line x1="345.722" y1="107.953" x2="386.823" y2="61.1697" stroke="black" stroke-width="3.16129"/>
<rect x="333" y="57.1548" width="60.0645" height="2.52903" rx="1.26452" fill="black"/>
<rect x="346.91" y="38.8193" width="31.6129" height="3.79355" rx="1.89677" fill="black"/>
<path d="M336.794 57.1549C336.794 49.1236 343.304 42.6129 351.335 42.6129H374.097C382.128 42.6129 388.639 49.1236 388.639 57.1549H336.794Z" fill="black"/>
<path d="M353.232 36.9226C353.232 31.6848 357.478 27.4387 362.716 27.4387C367.954 27.4387 372.2 31.6848 372.2 36.9226V38.8194H353.232V36.9226Z" fill="black"/>
<circle cx="362.716" cy="23.6452" r="11.0645" stroke="black" stroke-width="3.16129"/>
</svg>
